<?xml version="1.0" encoding="UTF-8"?>
<svg id="Ebene_1" xmlns="http://www.w3.org/2000/svg" version="1.1" viewBox="0 0 405.37 105.04">
  <!-- Generator: Adobe Illustrator 29.8.0, SVG Export Plug-In . SVG Version: 2.1.1 Build 160)  -->
  <defs>
    <style>
      .st0 {
        fill: #1e1e1c;
      }
    </style>
  </defs>
  <path class="st0" d="M73.65,25.55c0-3.44,2.63-6.27,6.27-6.27,3.94,0,6.57,2.83,6.57,6.27,0,3.64-2.63,6.57-6.57,6.57-3.64,0-6.27-2.93-6.27-6.57ZM74.76,87.23l.25-47.12h10.11l-.25,47.12h-10.11Z"/>
  <path class="st0" d="M171.63,40.11v10.52h-14.56v36.6h-10.11v-47.12h24.67Z"/>
  <path class="st0" d="M190.2,87.23h-10.62V26.36h-16.89v-9.91h44.39v9.91h-16.89v60.88Z"/>
  <path class="st0" d="M223,40.11v10.52h-14.56v36.6h-10.11v-47.12h24.67Z"/>
  <polygon class="st0" points="315.81 40.11 315.81 87.23 305.73 87.23 305.73 49.44 290.96 49.44 290.96 87.23 280.85 87.23 280.85 34.75 290.96 34.75 290.96 40.11 315.81 40.11"/>
  <path class="st0" d="M323.1,25.55c0-3.44,2.63-6.27,6.27-6.27,3.94,0,6.57,2.83,6.57,6.27,0,3.64-2.63,6.57-6.57,6.57-3.64,0-6.27-2.93-6.27-6.57ZM324.22,87.23v-47.12h10.11v47.12h-10.11Z"/>
  <path class="st0" d="M249.41,49.05c8.06,0,14.63,6.56,14.63,14.63s-6.56,14.63-14.63,14.63-14.63-6.56-14.63-14.63,6.56-14.63,14.63-14.63M249.41,38.9c-13.68,0-24.78,11.09-24.78,24.77s11.09,24.78,24.78,24.78,24.78-11.09,24.78-24.78-11.09-24.77-24.78-24.77h0Z"/>
  <path class="st0" d="M44.9,15.14c-13.68,0-24.78,11.1-24.78,24.78v47.31h10.12v-27.44c4.09,3.08,9.17,4.88,14.67,4.88,13.68,0,24.75-11.1,24.75-24.75s-11.07-24.78-24.75-24.78ZM44.9,54.53c-8.09,0-14.63-6.55-14.63-14.6s6.55-14.63,14.63-14.63,14.6,6.55,14.6,14.63-6.55,14.6-14.6,14.6Z"/>
  <path class="st0" d="M364.54,78.31c-8.09,0-14.63-6.55-14.63-14.63s6.55-14.63,14.63-14.63c5.01,0,9.43,2.55,12.08,6.38l8.25-5.86c-4.45-6.45-11.88-10.67-20.33-10.67-13.68,0-24.78,11.1-24.78,24.78s11.1,24.78,24.78,24.78c8.41,0,15.85-4.19,20.33-10.64l-8.25-5.89c-2.65,3.86-7.07,6.38-12.08,6.38Z"/>
  <path class="st0" d="M140.17,67.63c.23-1.28.33-2.62.33-3.96,0-13.68-11.1-24.78-24.78-24.78s-24.78,11.1-24.78,24.78,11.1,24.78,24.78,24.78c8.41,0,15.85-4.19,20.33-10.64l-8.25-5.89c-2.65,3.86-7.07,6.38-12.08,6.38-6.68,0-12.34-4.52-14.08-10.67h38.53ZM115.71,49.04c6.25,0,11.62,3.96,13.68,9.49h-27.37c2.06-5.53,7.43-9.49,13.68-9.49Z"/>
</svg>