<svg xmlns="http://www.w3.org/2000/svg" version="1.1" xmlns:xlink="http://www.w3.org/1999/xlink" width="331.99" height="364.75"><svg id="SvgjsSvg1062" xmlns="http://www.w3.org/2000/svg" version="1.1" viewBox="0 0 331.99 364.75">
  <!-- Generator: Adobe Illustrator 29.8.0, SVG Export Plug-In . SVG Version: 2.1.1 Build 160)  -->
  <defs>
    <style>
      .st0 {
        fill: #1e1e1c;
      }
    </style>
  </defs>
  <g id="SvgjsG1061">
    <path class="st0" d="M293.55,119.45c-1.51-15.7-15.46-27.22-31.17-25.71l-54.28,5.21,1.11,11.61,31.48-3.02c-3.08,5.03-4.59,11.06-3.98,17.37,1.51,15.7,15.46,27.18,31.13,25.67,15.7-1.51,27.22-15.43,25.71-31.13ZM248.36,123.78c-.89-9.28,5.9-17.51,15.14-18.4,9.28-.89,17.51,5.9,18.4,15.18.89,9.24-5.91,17.48-15.18,18.37-9.24.89-17.48-5.91-18.36-15.15Z"></path>
  </g>
  <g id="SvgjsG1060" data-name="_x3C_Radiale_Wiederholung_x3E_">
    <path class="st0" d="M301.86,228.55c10.04-12.17,8.31-30.18-3.86-40.22l-42.07-34.7-7.42,9,24.4,20.12c-5.74,1.38-11.06,4.57-15.1,9.46-10.04,12.17-8.29,30.15,3.85,40.16,12.17,10.04,30.16,8.34,40.19-3.83ZM266.83,199.66c5.93-7.19,16.56-8.21,23.72-2.3,7.19,5.93,8.21,16.56,2.28,23.75-5.91,7.16-16.53,8.18-23.72,2.25-7.16-5.91-8.18-16.53-2.27-23.69Z"></path>
  </g>
  <g id="SvgjsG1059" data-name="_x3C_Radiale_Wiederholung_x3E_">
    <path class="st0" d="M230.57,311.58c15.7-1.51,27.22-15.46,25.71-31.17l-5.21-54.28-11.61,1.11,3.02,31.48c-5.03-3.08-11.06-4.59-17.37-3.98-15.7,1.51-27.18,15.46-25.67,31.13,1.51,15.7,15.43,27.22,31.13,25.71ZM226.24,266.39c9.28-.89,17.51,5.9,18.4,15.14.89,9.28-5.9,17.51-15.18,18.4-9.24.89-17.48-5.91-18.37-15.18-.89-9.24,5.91-17.48,15.15-18.36Z"></path>
  </g>
  <g id="SvgjsG1058" data-name="_x3C_Radiale_Wiederholung_x3E_">
    <path class="st0" d="M121.46,319.89c12.17,10.04,30.18,8.31,40.22-3.86l34.7-42.07-9-7.42-20.12,24.4c-1.38-5.74-4.57-11.06-9.46-15.1-12.17-10.04-30.15-8.29-40.16,3.85-10.04,12.17-8.34,30.16,3.83,40.19ZM150.35,284.86c7.19,5.93,8.21,16.56,2.3,23.72-5.93,7.19-16.56,8.21-23.75,2.28-7.16-5.91-8.18-16.53-2.25-23.72,5.91-7.16,16.53-8.18,23.69-2.27Z"></path>
  </g>
  <g id="SvgjsG1057" data-name="_x3C_Radiale_Wiederholung_x3E_">
    <path class="st0" d="M38.44,248.6c1.51,15.7,15.46,27.22,31.17,25.71l54.28-5.21-1.11-11.61-31.48,3.02c3.08-5.03,4.59-11.06,3.98-17.37-1.51-15.7-15.46-27.18-31.13-25.67-15.7,1.51-27.22,15.43-25.71,31.13ZM83.63,244.27c.89,9.28-5.9,17.51-15.14,18.4-9.28.89-17.51-5.9-18.4-15.18-.89-9.24,5.91-17.48,15.18-18.37,9.24-.89,17.48,5.91,18.36,15.15Z"></path>
  </g>
  <g id="SvgjsG1056" data-name="_x3C_Radiale_Wiederholung_x3E_">
    <path class="st0" d="M30.13,139.49c-10.04,12.17-8.31,30.18,3.86,40.22l42.07,34.7,7.42-9-24.4-20.12c5.74-1.38,11.06-4.57,15.1-9.46,10.04-12.17,8.29-30.15-3.85-40.16-12.17-10.04-30.16-8.34-40.19,3.83ZM65.16,168.38c-5.93,7.19-16.56,8.21-23.72,2.3-7.19-5.93-8.21-16.56-2.28-23.75,5.91-7.16,16.53-8.18,23.72-2.25,7.16,5.91,8.18,16.53,2.27,23.69Z"></path>
  </g>
  <g id="SvgjsG1055" data-name="_x3C_Radiale_Wiederholung_x3E_">
    <path class="st0" d="M101.42,56.46c-15.7,1.51-27.22,15.46-25.71,31.17l5.21,54.28,11.61-1.11-3.02-31.48c5.03,3.08,11.06,4.59,17.37,3.98,15.7-1.51,27.18-15.46,25.67-31.13-1.51-15.7-15.43-27.22-31.13-25.71ZM105.75,101.66c-9.28.89-17.51-5.9-18.4-15.14-.89-9.28,5.9-17.51,15.18-18.4,9.24-.89,17.48,5.91,18.37,15.18.89,9.24-5.91,17.48-15.15,18.36Z"></path>
  </g>
  <g id="SvgjsG1054" data-name="_x3C_Radiale_Wiederholung_x3E_">
    <path class="st0" d="M210.53,48.16c-12.17-10.04-30.18-8.31-40.22,3.86l-34.7,42.07,9,7.42,20.12-24.4c1.38,5.74,4.57,11.06,9.46,15.1,12.17,10.04,30.15,8.29,40.16-3.85,10.04-12.17,8.34-30.16-3.83-40.19ZM181.64,83.18c-7.19-5.93-8.21-16.56-2.3-23.72,5.93-7.19,16.56-8.21,23.75-2.28,7.16,5.91,8.18,16.53,2.25,23.72-5.91,7.16-16.53,8.18-23.69,2.27Z"></path>
  </g>
</svg><style>@media (prefers-color-scheme: light) { :root { filter: none; } }
@media (prefers-color-scheme: dark) { :root { filter: none; } }
</style></svg>